# xmcd
#
# Track frame offsets:
#	150
#	44502
#	62242
#	75052
#	87712
#	102150
#	115372
#	145612
#	198675
#	220400
#	232275
#	245925
#
# Disc length: 3475
#
# Revision: 2
# Processed by: cddbd v1.5.1PL0 Copyright (c) Steve Scherf et al.
# Submitted via: NotifyCDPlayer(CDDB) 1.51.3
# Normalized: r1:TDELIM( - )
#
DISCID=b70d910c
DTITLE=Various Artist - Vintage Blues Volume Two
DYEAR=1900
DGENRE=
TTITLE0=Buddy Guy and Junior Wells - Talkin' 'Bout Women Obviously
TTITLE1=Arthur Adams - Get Your Engine Started
TTITLE2=Big Mama Thornton - Hound Dog
TTITLE3=Elmore James - The Sky Is Crying
TTITLE4=Otis Rush - So Many Roads, So Many Trains
TTITLE5=Howlin' Wolf - No Place To Go
TTITLE6=John Lee Hooker - Kick Hit 4 Hit Kix You
TTITLE7=Charlie Musselwhite - Christo Redemptor
TTITLE8=Little Walter - My Babe
TTITLE9=Taj Mahal - Leaving Trunk
TTITLE10=B.B. King - Sweet Little Angel
TTITLE11=Muddy Waters - Still A Fool
EXTD=
EXTT0=
EXTT1=
EXTT2=
EXTT3=
EXTT4=
EXTT5=
EXTT6=
EXTT7=
EXTT8=
EXTT9=
EXTT10=
EXTT11=
PLAYORDER=
